<svg version="1.1" id="Layer_1" xmlns="http://www.w3.org/2000/svg" xmlns:xlink="http://www.w3.org/1999/xlink" x="0px" y="0px" viewBox="0 0 153.5 44.8" style="enable-background:new 0 0 153.5 44.8;" xml:space="preserve">
 <style type="text/css">
  .st0{fill:#00837B;}
 </style>
 <g>
  <path class="st0" d="M58,0v44.8h30.5c12.2,0,15.5-8.4,15.5-13.4c0-5.4-2.4-9-7.1-10.9c2.2-1.2,5.1-3.4,5.1-9C102,6.2,99.7,0,88.8,0
		H58z M85.6,36.8H68.4V8h16.3c5.8,0,7,1.8,7,4.5c0,4.1-2.7,4.5-5.3,4.8c0,0-0.4,0.1-0.5,0.1H80L71.3,26h15.6c2.9,0,6.3,0.9,6.3,5.2
		C93.3,35.8,90.3,36.8,85.6,36.8 M112.5,0v44.8h31.9l9.1-9h-30.6V0H112.5z M46.7,0v44.8H36.4V26H13.3l9-9h14V0H46.7z M10.4,44.8H0V0
		h10.4V44.8z">
  </path>
 </g>
</svg>