<svg xmlns="http://www.w3.org/2000/svg" version="1.1" viewBox="-5.0 -10.0 110.0 135.0">
 <g>
  <path d="m38.125 52.969c1.7031 0.62109 3.5 0.9375 5.3125 0.9375 2.5703-0.011719 5.1094-0.59766 7.4219-1.7188 0.69141-0.41406 0.95703-1.2812 0.61328-2.0078-0.34375-0.72656-1.1836-1.0742-1.9414-0.80469-3.2266 1.6211-6.9727 1.875-10.391 0.70312-2.1211-0.6875-3.8711-2.2109-4.8438-4.2188-2.4219-5.4688-1.4844-9.375-0.23438-11.719 1.3164-2.5117 3.6523-4.332 6.4062-5 5.5469-0.9375 8.6719 1.1719 10.234 3.125s2.8125 6.1719 2.1094 8.0469-1.0938 2.6562-2.1875 2.8906c-0.80859 0.085937-1.6172-0.13672-2.2656-0.625 0.10156-0.35938 0.17969-0.72656 0.23438-1.0938v-0.23438c0.46875-3.125 0.85938-6.6406-1.0156-8.4375l-0.39062-0.3125c-0.39062-0.15625-3.9062-1.7188-6.7969-0.078125s-2.8906 2.9688-3.2031 5.7812c-0.15625 1.1719-0.46875 4.375 1.3281 6.5625 1 1.1758 2.4414 1.8867 3.9844 1.9531h0.46875c1.4336 0.015625 2.8164-0.54688 3.8281-1.5625 1.3242 0.90234 2.957 1.2422 4.5312 0.9375 1.9531-0.46875 3.4375-2.1094 4.4531-4.9219s0.3125-7.5-2.7344-11.094-7.7344-5.0781-13.125-4.1406c-2.7344 0.46875-6.4844 2.6562-8.5938 6.6406s-2.8125 7.7344 0.078125 14.453c1.3281 2.8203 3.7578 4.9648 6.7188 5.9375zm4.7656-9.2969c-0.70703 0.015625-1.3906-0.26562-1.875-0.78125-0.9375-1.1719-0.70312-3.4375-0.625-4.2188s0.70312-2.8906 1.6406-3.4375c0.47656-0.26953 1.0156-0.40234 1.5625-0.39062 0.71875 0.011719 1.4336 0.14453 2.1094 0.39062 0.3125 0.54688 0.46875 1.9531-0.078125 5.4688v0.23438c-0.39062 1.875-1.3281 2.8125-2.8125 2.6562z"/>
  <path d="m85.938 69.531c-5.6875 0-10.816 3.4258-12.992 8.6797-2.1758 5.2578-0.97266 11.305 3.0469 15.328 4.0234 4.0195 10.07 5.2227 15.328 3.0469 5.2539-2.1758 8.6797-7.3047 8.6797-12.992 0-7.7656-6.2969-14.062-14.062-14.062zm0 25c-4.4219 0-8.4102-2.6641-10.105-6.75-1.6914-4.0898-0.75781-8.793 2.3711-11.922s7.832-4.0625 11.922-2.3711c4.0859 1.6953 6.75 5.6836 6.75 10.105 0 2.9023-1.1523 5.6836-3.2031 7.7344s-4.832 3.2031-7.7344 3.2031z"/>
  <path d="m89.453 79.766-5.1562 5.1562-1.5625-1.5625c-0.62109-0.46484-1.4922-0.40625-2.043 0.14453-0.55078 0.55078-0.60938 1.4219-0.14453 2.043l2.6562 2.6562c0.60938 0.59375 1.5781 0.59375 2.1875 0l6.25-6.25c0.46484-0.62109 0.40625-1.4922-0.14453-2.043-0.55078-0.55078-1.4219-0.60938-2.043-0.14453z"/>
  <path d="m1.5625 86.719h67.5c-0.19922-1.0312-0.30469-2.0742-0.3125-3.125h-63.438l22.344-24.531 14.297 11.953c0.58594 0.5 1.4453 0.5 2.0312 0l14.688-12.109 13.281 14.609c0.62891-0.84375 1.3359-1.6289 2.1094-2.3438l-12.969-14.297 21.719-17.812v27.656c1.0312-0.19922 2.0742-0.30469 3.125-0.3125v-30.938h-0.078125v-0.23438h-0.39062l-8.125-7.1094v-9.0625c-0.019531-0.93359-0.41016-1.8203-1.0859-2.4648-0.67187-0.64453-1.5742-0.99219-2.5078-0.97266h-12.188l-15.469-12.266c-1.6836-1.2891-4.0195-1.2891-5.7031 0l-15.938 12.266h-12.266c-0.93359-0.019531-1.8359 0.32812-2.5078 0.97266-0.67578 0.64453-1.0664 1.5312-1.0859 2.4648v8.8281l-7.9688 6.1719h-0.23438v0.15625h-0.15625v0.23438h-0.15625v0.70312h-0.078125v50c0 0.41406 0.16406 0.8125 0.45703 1.1055s0.69141 0.45703 1.1055 0.45703zm1.5625-5.3906v-42.734l22.109 18.438zm39.219-75.547c0.55469-0.41797 1.3203-0.41797 1.875 0l12.344 9.8438h-26.953zm-30.625 31.875v-18.594c0-0.15625 0.15625-0.3125 0.46875-0.3125h61.562c0.3125 0 0.46875 0.15625 0.46875 0.3125v18.984l3.125-2.5781v-3.2812l4.5312 3.5938-38.906 31.953-38.906-32.422 4.5312-3.5156v3.2031z"/>
 </g></svg>